<svg id="svg" version="1.1" xmlns="http://www.w3.org/2000/svg" xmlns:xlink="http://www.w3.org/1999/xlink" width="400" height="400" viewBox="0, 0, 400,400"><g id="svgg"><path id="path0" d="M290.000 28.816 C 290.000 57.295,290.010 57.651,290.840 59.278 L 291.679 60.923 290.759 62.888 C 290.162 64.162,289.985 64.949,290.254 65.126 C 290.483 65.277,291.599 66.004,292.735 66.742 C 293.871 67.480,294.800 68.254,294.800 68.462 C 294.800 70.114,301.418 70.643,303.800 69.182 C 305.532 68.119,306.384 68.032,308.126 68.741 C 308.745 68.994,309.968 69.200,310.842 69.200 C 311.716 69.200,313.138 69.560,314.000 70.000 C 314.862 70.440,315.846 70.800,316.186 70.800 C 316.525 70.800,317.388 71.115,318.103 71.500 C 319.274 72.131,319.524 72.591,319.190 73.500 C 319.129 73.665,319.061 74.250,319.040 74.800 C 318.977 76.372,316.657 76.780,308.000 76.739 C 297.072 76.686,242.374 77.307,242.548 77.481 C 242.630 77.563,260.196 77.689,281.583 77.761 L 320.469 77.891 321.335 78.757 L 322.200 79.622 322.279 135.097 L 322.359 190.572 321.514 191.939 L 320.670 193.305 316.635 193.030 C 311.304 192.665,309.327 192.198,307.400 190.845 C 306.520 190.227,304.900 189.395,303.800 188.997 C 302.700 188.598,301.073 187.581,300.185 186.736 C 299.297 185.891,298.387 185.200,298.163 185.200 C 297.768 185.200,294.080 181.361,291.156 177.906 C 290.362 176.968,289.391 175.210,288.999 174.000 C 288.607 172.790,287.637 170.552,286.843 169.028 L 285.400 166.255 285.200 156.228 C 284.981 145.241,284.689 146.935,284.205 162.000 C 283.968 169.397,284.279 171.046,286.073 171.904 C 286.934 172.316,287.247 172.872,287.653 174.709 C 288.056 176.537,288.506 177.341,289.879 178.685 C 290.826 179.612,291.600 180.626,291.600 180.940 C 291.600 182.042,295.347 185.570,296.814 185.849 C 298.471 186.164,299.168 186.663,299.623 187.861 C 299.878 188.532,300.671 188.966,302.799 189.600 C 305.279 190.338,305.715 190.614,306.283 191.805 C 306.939 193.180,307.241 193.322,310.500 193.786 C 314.612 194.372,314.601 194.367,315.373 195.801 C 315.787 196.571,316.258 197.200,316.420 197.200 C 318.209 197.200,316.356 200.089,314.087 200.837 C 313.319 201.091,312.061 201.726,311.290 202.249 C 309.628 203.377,309.326 203.401,307.615 202.548 C 306.385 201.934,306.319 201.794,306.500 200.187 C 306.730 198.149,305.936 197.515,303.473 197.768 C 302.109 197.909,301.759 197.738,300.184 196.163 C 299.214 195.193,298.281 194.410,298.111 194.423 C 297.591 194.461,294.639 198.546,295.036 198.679 C 295.239 198.746,295.344 199.582,295.268 200.535 C 295.079 202.914,293.882 203.600,289.923 203.600 L 286.969 203.600 285.574 205.300 C 283.051 208.375,282.691 209.156,282.909 211.086 C 283.036 212.213,282.833 213.761,282.353 215.330 C 281.938 216.689,281.415 219.389,281.192 221.330 C 280.739 225.260,279.981 227.458,278.790 228.292 C 277.650 229.091,276.950 230.678,276.628 233.196 C 276.401 234.969,276.096 235.623,275.041 236.596 C 274.012 237.545,273.631 238.335,273.243 240.324 C 272.889 242.137,272.465 243.095,271.737 243.724 C 271.180 244.206,270.447 245.140,270.108 245.800 C 269.770 246.460,268.842 247.720,268.046 248.600 C 267.251 249.480,266.190 251.010,265.688 252.000 C 265.187 252.990,264.260 254.096,263.629 254.458 C 262.913 254.869,262.379 255.585,262.208 256.365 C 262.028 257.182,261.529 257.823,260.765 258.218 C 260.122 258.551,259.158 259.516,258.623 260.363 C 258.057 261.260,257.135 262.084,256.417 262.334 C 255.738 262.571,254.873 263.305,254.494 263.965 C 254.115 264.626,253.128 265.472,252.301 265.845 C 251.474 266.218,249.979 267.296,248.978 268.241 C 247.978 269.186,246.764 270.078,246.280 270.223 C 245.796 270.368,244.770 271.068,244.000 271.778 C 243.230 272.488,241.790 273.298,240.800 273.579 C 239.810 273.860,238.330 274.695,237.510 275.435 C 236.691 276.175,235.521 276.892,234.910 277.030 C 231.363 277.830,230.459 278.174,229.124 279.230 C 228.060 280.073,226.776 280.565,224.524 280.995 L 221.400 281.591 224.000 281.367 C 226.447 281.156,228.488 280.455,230.800 279.032 C 231.350 278.694,232.821 278.134,234.070 277.789 C 235.318 277.443,236.994 276.640,237.795 276.004 C 238.596 275.367,240.095 274.536,241.126 274.157 C 242.157 273.779,243.630 273.003,244.399 272.434 C 245.169 271.865,246.789 270.719,247.999 269.888 C 254.053 265.727,254.633 265.240,260.000 259.800 C 261.737 258.040,263.696 256.060,264.354 255.400 C 265.013 254.740,266.284 253.120,267.180 251.800 C 269.622 248.202,270.639 246.770,272.052 244.939 C 272.757 244.025,273.709 242.306,274.167 241.119 C 274.625 239.932,275.510 238.302,276.133 237.499 C 276.756 236.695,277.536 234.994,277.867 233.719 C 278.197 232.444,278.983 230.495,279.612 229.389 C 280.401 228.003,281.000 226.015,281.540 222.989 C 281.971 220.575,282.705 217.720,283.171 216.645 C 283.637 215.570,284.199 213.415,284.420 211.855 C 284.731 209.668,285.065 208.767,285.886 207.910 L 286.950 206.800 303.605 206.800 L 320.261 206.800 321.184 207.782 C 322.668 209.363,322.222 219.715,320.424 225.400 C 319.729 227.600,318.901 231.110,318.586 233.200 C 318.167 235.980,317.645 237.703,316.642 239.621 C 315.888 241.063,315.050 243.365,314.780 244.737 C 314.479 246.268,313.833 247.863,313.107 248.865 C 312.457 249.762,311.567 251.586,311.130 252.917 C 310.693 254.249,309.906 255.901,309.381 256.589 C 308.856 257.278,307.955 258.912,307.380 260.221 C 306.804 261.529,305.948 263.015,305.477 263.521 C 305.006 264.028,304.076 265.398,303.410 266.566 C 301.310 270.251,299.853 272.415,298.100 274.452 C 297.165 275.538,296.400 276.615,296.400 276.846 C 296.400 277.517,278.142 295.458,275.866 297.024 C 274.730 297.805,272.720 299.235,271.400 300.202 C 270.080 301.168,268.190 302.443,267.200 303.035 C 266.210 303.628,264.703 304.582,263.850 305.156 C 262.417 306.122,258.442 308.354,254.600 310.352 C 253.720 310.809,252.243 311.372,251.318 311.602 C 250.393 311.833,249.079 312.490,248.397 313.064 C 247.623 313.715,246.175 314.313,244.541 314.655 C 243.101 314.957,240.809 315.827,239.447 316.589 C 237.507 317.673,236.079 318.107,232.860 318.591 C 230.600 318.930,227.636 319.584,226.275 320.044 C 222.970 321.160,219.048 321.972,216.600 322.048 C 215.419 322.084,215.010 322.189,215.600 322.304 C 217.240 322.623,224.015 321.549,226.697 320.544 C 228.070 320.030,231.394 319.323,234.084 318.973 C 238.633 318.381,239.074 318.246,240.423 317.026 C 241.642 315.925,242.378 315.641,245.030 315.247 C 247.565 314.870,248.423 314.555,249.393 313.647 C 250.066 313.016,251.484 312.297,252.600 312.020 C 255.652 311.262,256.640 310.822,257.617 309.782 C 258.110 309.257,259.658 308.447,261.057 307.981 C 262.456 307.516,263.843 306.788,264.141 306.364 C 264.438 305.939,265.832 305.135,267.240 304.575 C 268.648 304.015,270.184 303.131,270.653 302.610 C 271.123 302.090,272.232 301.313,273.119 300.885 C 275.233 299.863,278.080 297.499,283.094 292.600 C 285.346 290.400,288.586 287.238,290.294 285.573 C 292.002 283.908,293.886 282.228,294.480 281.840 C 295.075 281.451,295.960 280.294,296.449 279.267 C 296.938 278.240,298.020 276.758,298.855 275.974 C 299.689 275.190,300.603 273.848,300.886 272.992 C 301.257 271.867,301.804 271.223,302.858 270.669 C 303.853 270.147,304.511 269.410,304.926 268.352 C 305.445 267.030,305.713 266.800,306.735 266.800 C 307.395 266.800,308.219 266.691,308.567 266.557 C 308.921 266.421,309.200 266.520,309.200 266.781 C 309.200 267.037,309.007 267.128,308.770 266.982 C 308.521 266.828,308.548 267.048,308.834 267.507 C 309.258 268.185,309.177 268.460,308.264 269.444 C 307.679 270.075,307.199 270.684,307.198 270.796 C 307.196 270.908,307.010 272.080,306.784 273.400 C 306.557 274.720,306.283 276.783,306.173 277.984 C 305.958 280.346,305.234 281.292,304.639 279.990 C 304.329 279.313,303.867 279.020,303.500 279.268 C 303.445 279.305,303.007 279.125,302.527 278.868 C 301.551 278.345,301.081 279.057,301.382 280.600 C 301.468 281.040,301.553 281.604,301.569 281.853 C 301.586 282.103,301.958 282.400,302.396 282.515 C 303.139 282.709,303.152 282.800,302.599 283.862 C 302.272 284.488,301.997 285.270,301.988 285.600 C 301.978 285.960,301.743 285.801,301.400 285.200 C 301.086 284.650,300.822 284.447,300.814 284.749 C 300.802 285.204,300.692 285.208,300.167 284.772 C 299.029 283.828,298.073 284.049,297.585 285.368 C 296.826 287.419,295.907 288.956,294.926 289.815 C 293.857 290.751,293.778 292.568,294.756 293.725 C 295.312 294.382,295.267 294.736,294.280 297.525 C 293.682 299.216,293.194 301.019,293.196 301.531 C 293.201 302.751,291.129 304.800,289.890 304.800 C 287.820 304.800,286.184 305.652,287.039 306.285 C 287.757 306.817,287.760 306.879,287.106 307.364 C 286.125 308.092,286.635 308.392,288.127 307.963 C 289.947 307.441,290.522 307.505,290.255 308.200 C 290.129 308.530,290.199 308.800,290.413 308.800 C 291.374 308.800,290.646 309.490,289.100 310.044 C 287.908 310.472,287.239 311.012,286.860 311.852 C 286.304 313.085,283.203 315.436,281.823 315.670 C 280.686 315.863,279.168 319.119,278.915 321.907 C 278.679 324.512,279.153 325.313,280.325 324.288 C 280.696 323.963,281.585 323.617,282.300 323.518 C 283.501 323.352,283.802 323.581,283.637 324.530 C 283.606 324.711,283.768 324.744,283.997 324.602 C 284.226 324.461,284.295 324.154,284.151 323.920 C 283.999 323.675,284.123 323.579,284.444 323.692 C 285.351 324.012,284.881 325.723,283.591 326.800 C 282.581 327.643,282.393 328.085,282.396 329.620 C 282.401 332.180,282.771 332.400,287.061 332.400 C 293.327 332.400,293.600 332.762,293.600 341.050 L 293.600 346.862 292.431 348.031 C 291.428 349.033,290.955 349.200,289.111 349.200 C 285.487 349.200,284.358 353.146,287.521 354.760 C 290.055 356.053,290.000 355.517,290.000 378.819 L 290.000 400.000 345.000 400.000 L 400.000 400.000 400.000 200.000 L 400.000 0.000 345.000 0.000 L 290.000 0.000 290.000 28.816 M231.200 77.600 C 228.788 77.806,229.434 77.870,234.500 77.928 C 238.481 77.973,240.800 77.853,240.800 77.600 C 240.800 77.169,236.257 77.169,231.200 77.600 M186.300 77.893 C 187.235 77.977,188.765 77.977,189.700 77.893 C 190.635 77.809,189.870 77.740,188.000 77.740 C 186.130 77.740,185.365 77.809,186.300 77.893 M207.629 78.364 C 206.807 78.996,206.641 79.503,206.550 81.655 L 206.442 84.200 206.814 81.839 C 207.285 78.854,207.976 78.081,210.344 77.892 L 212.200 77.744 210.400 77.681 C 209.180 77.638,208.287 77.858,207.629 78.364 M192.283 78.651 C 192.968 79.233,193.199 79.936,193.318 81.800 L 193.470 84.200 193.435 81.647 C 193.404 79.367,193.293 79.030,192.400 78.498 L 191.400 77.902 192.283 78.651 M325.637 86.907 C 326.070 88.909,326.178 98.030,326.188 133.200 C 326.197 167.777,326.308 177.295,326.712 178.400 C 326.994 179.170,327.316 181.510,327.427 183.600 L 327.630 187.400 325.865 188.657 L 324.100 189.913 323.830 187.657 C 323.488 184.792,323.523 90.484,323.868 86.241 C 324.170 82.532,324.738 82.746,325.637 86.907 M193.324 92.200 C 193.326 93.520,193.401 94.012,193.490 93.293 C 193.579 92.574,193.577 91.494,193.486 90.893 C 193.395 90.292,193.322 90.880,193.324 92.200 M209.278 93.800 C 210.176 96.038,211.790 98.837,212.634 99.626 C 213.208 100.162,214.044 101.313,214.491 102.185 C 215.368 103.897,218.693 107.111,220.367 107.866 C 220.935 108.122,221.991 108.957,222.714 109.722 C 223.676 110.741,224.497 111.184,225.784 111.377 C 226.751 111.522,228.140 112.073,228.871 112.603 C 232.116 114.952,232.233 114.973,242.800 115.022 L 252.600 115.067 243.200 114.834 C 233.594 114.595,230.855 114.108,229.835 112.456 C 229.687 112.217,228.359 111.649,226.883 111.193 C 225.144 110.657,223.707 109.894,222.800 109.027 C 222.030 108.290,220.860 107.417,220.200 107.085 C 218.249 106.105,212.270 99.289,211.133 96.749 C 210.522 95.386,208.841 92.713,209.278 93.800 M193.287 108.046 C 193.189 113.709,192.733 114.848,190.275 115.559 C 189.267 115.851,189.190 115.935,189.906 115.964 C 190.410 115.984,191.438 115.423,192.222 114.700 L 193.633 113.400 193.503 108.200 L 193.374 103.000 193.287 108.046 M251.599 120.241 C 250.142 121.731,244.126 127.729,239.106 132.696 C 238.608 133.189,237.840 133.964,237.400 134.418 C 236.960 134.873,235.801 136.038,234.825 137.008 C 232.696 139.122,232.922 139.628,236.773 141.356 C 238.055 141.931,239.338 142.684,239.625 143.030 C 239.912 143.376,240.789 144.001,241.573 144.420 C 242.358 144.839,244.080 146.372,245.400 147.828 C 246.720 149.284,248.543 151.223,249.451 152.137 C 250.359 153.052,251.309 154.203,251.563 154.696 C 251.816 155.189,252.550 155.864,253.193 156.197 C 253.906 156.565,254.668 157.490,255.142 158.561 C 255.573 159.535,256.285 160.436,256.737 160.580 C 257.304 160.760,257.751 161.513,258.193 163.036 C 259.314 166.892,261.177 167.826,262.995 165.442 C 263.565 164.695,264.557 163.866,265.201 163.600 C 265.845 163.333,266.737 162.495,267.184 161.737 C 267.631 160.979,268.508 160.181,269.132 159.964 C 269.825 159.722,270.528 159.020,270.938 158.162 C 271.370 157.254,272.048 156.602,272.847 156.324 C 273.675 156.035,274.276 155.438,274.658 154.524 C 274.973 153.770,275.837 152.797,276.583 152.357 C 277.327 151.918,278.117 151.041,278.337 150.409 C 278.557 149.777,279.204 148.954,279.774 148.580 C 280.344 148.207,281.351 147.100,282.013 146.119 C 282.824 144.917,281.325 146.201,277.403 150.068 C 274.206 153.221,271.311 156.070,270.970 156.400 C 270.629 156.730,269.146 158.217,267.675 159.705 C 266.204 161.193,264.066 163.034,262.924 163.796 L 260.848 165.181 259.541 162.890 C 258.822 161.631,257.686 160.017,257.017 159.304 C 256.348 158.591,254.900 157.000,253.800 155.768 C 250.090 151.612,243.411 145.117,241.800 144.097 C 240.920 143.539,240.062 142.851,239.894 142.567 C 239.726 142.283,238.519 141.401,237.211 140.607 L 234.834 139.163 236.180 137.281 C 237.696 135.164,239.919 132.596,242.000 130.559 C 242.770 129.806,243.580 129.004,243.800 128.777 C 244.020 128.550,246.000 126.528,248.201 124.282 C 252.302 120.097,253.848 118.400,253.561 118.400 C 253.471 118.400,252.588 119.228,251.599 120.241 M275.274 164.254 C 274.767 165.159,275.551 167.530,276.451 167.816 C 276.881 167.953,277.251 168.561,277.367 169.323 C 277.475 170.025,277.667 171.262,277.794 172.071 C 278.137 174.249,279.336 175.641,279.923 174.543 C 280.525 173.420,280.345 167.915,279.700 167.700 C 279.425 167.608,279.187 167.233,279.172 166.867 C 279.149 166.335,279.074 166.362,278.800 167.000 C 278.480 167.744,278.454 167.748,278.428 167.051 C 278.404 166.403,278.305 166.374,277.700 166.832 C 277.104 167.282,277.075 167.278,277.500 166.801 C 278.337 165.862,278.092 164.570,276.981 164.064 C 275.691 163.477,275.710 163.475,275.274 164.254 M282.040 190.356 C 281.317 190.912,281.218 191.148,281.640 191.315 C 282.055 191.479,282.023 191.545,281.518 191.568 C 280.592 191.611,280.169 194.044,280.666 196.468 C 280.902 197.623,280.911 198.616,280.687 199.016 C 280.370 199.583,280.435 199.610,281.175 199.213 C 281.646 198.962,282.383 198.868,282.815 199.005 C 283.278 199.152,283.600 199.069,283.600 198.803 C 283.600 198.556,283.780 198.464,284.000 198.600 C 284.355 198.819,284.473 198.543,284.366 197.745 C 284.347 197.604,284.491 197.379,284.685 197.245 C 284.879 197.110,285.432 196.437,285.912 195.748 L 286.786 194.496 285.464 192.748 C 284.738 191.787,284.026 190.685,283.884 190.300 C 283.559 189.421,283.243 189.431,282.040 190.356 M274.490 193.432 L 273.180 194.750 274.024 195.537 C 274.721 196.186,274.791 196.470,274.420 197.162 C 273.890 198.154,274.003 198.177,275.781 197.434 C 277.353 196.777,278.000 195.769,278.000 193.977 C 278.000 192.923,277.902 192.783,277.434 193.172 C 276.981 193.547,276.815 193.477,276.607 192.821 C 276.275 191.774,276.081 191.830,274.490 193.432 M278.995 200.959 C 277.929 201.746,278.747 202.724,280.002 202.164 C 280.714 201.847,280.757 201.695,280.311 201.084 C 279.847 200.449,279.705 200.436,278.995 200.959 M325.613 211.210 C 327.148 215.689,326.972 219.231,325.056 222.400 L 324.209 223.800 323.952 222.600 C 323.810 221.940,323.673 219.128,323.647 216.350 C 323.574 208.542,324.167 206.992,325.613 211.210 M322.254 232.198 C 322.884 232.526,323.254 232.796,323.076 232.798 C 322.898 232.799,322.890 233.022,323.057 233.293 C 323.680 234.300,323.482 235.448,322.384 237.200 C 321.553 238.528,321.140 239.892,320.812 242.400 C 320.370 245.774,318.528 250.955,317.186 252.600 C 316.827 253.040,316.233 254.216,315.866 255.214 C 315.098 257.304,313.078 258.902,312.642 257.765 C 311.842 255.681,312.514 252.403,313.743 252.394 C 315.239 252.383,315.493 251.879,315.757 248.400 C 316.137 243.384,316.397 242.674,317.978 242.351 C 319.838 241.971,319.998 241.519,319.896 236.958 C 319.783 231.911,320.178 231.115,322.254 232.198 M310.687 260.900 C 311.116 261.457,309.541 264.608,309.070 264.136 C 308.721 263.788,308.718 261.015,309.067 260.667 C 309.490 260.244,310.268 260.356,310.687 260.900 M217.285 282.377 C 216.121 282.773,215.041 283.239,214.885 283.412 C 214.728 283.586,214.870 283.635,215.200 283.522 C 216.780 282.981,219.884 282.032,220.600 281.872 C 221.229 281.731,221.187 281.689,220.400 281.674 C 219.850 281.664,218.448 281.980,217.285 282.377 M207.828 285.347 L 206.400 286.694 206.490 293.447 L 206.579 300.200 206.699 293.510 L 206.819 286.820 208.271 285.410 C 209.069 284.634,209.618 284.000,209.490 284.000 C 209.362 284.000,208.614 284.606,207.828 285.347 M210.705 284.283 C 211.202 284.379,211.922 284.375,212.305 284.275 C 212.687 284.175,212.280 284.096,211.400 284.101 C 210.520 284.105,210.207 284.187,210.705 284.283 M193.194 288.719 L 193.387 291.000 193.518 289.044 C 193.590 287.969,193.503 286.942,193.324 286.763 C 193.146 286.584,193.087 287.464,193.194 288.719 M193.367 303.800 C 193.367 307.980,193.426 309.636,193.498 307.479 C 193.571 305.323,193.570 301.903,193.498 299.879 C 193.425 297.856,193.366 299.620,193.367 303.800 M206.531 305.800 C 206.533 307.340,206.605 307.921,206.692 307.091 C 206.779 306.261,206.777 305.001,206.689 304.291 C 206.600 303.581,206.529 304.260,206.531 305.800 M206.487 315.471 C 206.387 321.510,206.862 322.452,209.954 322.354 L 211.400 322.308 209.901 322.017 C 207.093 321.472,206.839 320.936,206.698 315.248 L 206.574 310.200 206.487 315.471 M193.272 317.838 C 193.176 321.096,192.489 321.720,188.660 322.035 L 185.800 322.271 188.338 322.335 C 192.600 322.444,193.800 321.290,193.497 317.373 C 193.348 315.447,193.342 315.458,193.272 317.838 M291.200 320.503 C 291.200 321.142,290.920 321.225,289.131 321.121 C 285.672 320.919,286.374 319.652,289.900 319.733 C 290.887 319.756,291.200 319.942,291.200 320.503 " stroke="none" fill="#49a5d3" fill-rule="evenodd"></path><path id="path1" d="M0.000 200.000 L 0.000 400.000 27.800 400.000 L 55.600 400.000 55.600 315.422 L 55.600 230.845 56.500 229.815 L 57.400 228.785 59.400 229.543 C 64.752 231.569,65.703 236.279,61.109 238.001 C 59.539 238.589,59.416 238.738,59.597 239.821 C 59.706 240.469,59.770 242.575,59.740 244.500 C 59.662 249.447,59.646 251.774,59.677 253.500 C 59.692 254.325,59.565 256.388,59.396 258.084 C 59.146 260.573,59.206 261.350,59.705 262.112 C 60.272 262.976,60.264 263.093,59.612 263.500 C 57.996 264.509,59.271 266.557,61.463 266.475 C 63.087 266.414,63.131 266.586,61.700 267.400 L 60.600 268.026 62.000 267.753 C 63.739 267.413,63.713 267.413,66.474 267.763 C 69.980 268.207,70.096 267.896,69.932 258.446 C 69.859 254.267,69.672 251.152,69.515 251.524 C 69.358 251.896,69.338 250.805,69.470 249.100 C 69.640 246.909,69.577 246.000,69.255 246.000 C 69.005 246.000,68.800 245.758,68.800 245.462 C 68.800 245.166,68.422 244.582,67.959 244.163 C 66.835 243.145,66.000 241.468,66.000 240.226 C 66.000 239.668,65.787 238.417,65.528 237.445 C 64.829 234.833,65.631 231.582,67.326 230.156 C 68.026 229.566,68.615 228.975,68.634 228.842 C 68.652 228.709,68.877 228.093,69.134 227.474 C 70.225 224.838,69.506 222.526,67.125 221.021 C 66.534 220.647,65.958 219.859,65.845 219.271 C 64.701 213.314,64.874 213.716,63.171 213.035 C 61.022 212.175,61.027 212.174,58.983 214.058 C 57.993 214.971,57.128 215.646,57.059 215.558 C 55.592 213.690,55.600 213.773,55.600 200.073 C 55.600 188.179,55.675 186.597,56.286 185.562 C 57.176 184.056,57.273 184.083,58.210 186.100 C 59.719 189.347,61.533 189.266,63.264 185.874 C 63.692 185.034,64.670 183.978,65.436 183.526 C 67.393 182.371,68.148 180.740,67.832 178.353 C 67.598 176.590,67.695 176.269,69.033 174.408 C 70.376 172.537,70.467 172.238,70.207 170.506 C 69.505 165.829,67.882 164.286,66.943 167.403 C 66.477 168.950,66.459 168.962,66.387 167.800 C 66.321 166.742,66.273 166.800,65.980 168.281 C 65.180 172.330,63.825 172.443,63.765 168.466 C 63.695 163.767,60.548 162.032,58.966 165.819 C 57.826 168.548,59.169 172.000,61.369 172.000 C 63.370 172.000,60.974 174.434,58.724 174.687 C 55.970 174.998,55.861 174.646,55.472 164.200 C 54.363 134.424,55.584 124.292,59.378 131.791 C 60.721 134.446,60.971 134.480,63.070 132.300 C 65.682 129.587,65.708 129.474,66.112 119.185 C 66.515 108.929,66.506 108.864,64.208 105.600 C 60.661 100.561,59.204 102.197,59.201 111.222 C 59.200 116.767,59.153 117.108,58.223 118.369 L 57.245 119.694 56.424 118.347 C 54.532 115.244,55.314 69.600,57.259 69.600 C 58.620 69.600,59.200 71.995,59.212 77.662 C 59.221 81.607,59.347 83.190,59.617 82.728 C 60.261 81.623,61.955 82.108,63.380 83.805 C 65.058 85.804,65.600 85.419,65.600 82.225 C 65.600 80.467,65.783 79.546,66.200 79.200 C 66.530 78.926,66.800 78.220,66.800 77.631 C 66.800 77.042,66.971 76.389,67.179 76.180 C 67.745 75.614,68.222 61.350,67.697 60.714 C 67.464 60.431,66.791 58.994,66.202 57.520 C 65.613 56.047,64.877 54.630,64.566 54.372 C 64.088 53.975,64.000 49.692,64.000 26.951 L 64.000 0.000 61.600 0.000 L 59.200 0.000 59.200 28.946 C 59.200 57.624,59.192 57.902,58.371 58.946 C 55.694 62.349,55.600 61.329,55.600 28.820 L 55.600 0.000 27.800 0.000 L 0.000 0.000 0.000 200.000 M64.226 160.371 C 63.676 160.979,63.627 161.303,63.982 161.967 C 64.661 163.234,68.278 163.184,68.773 161.900 C 69.457 160.128,65.615 158.837,64.226 160.371 M64.157 199.603 C 63.936 199.824,62.775 200.319,61.577 200.703 L 59.400 201.400 59.280 203.464 C 59.178 205.231,59.291 205.618,60.069 206.164 C 61.322 207.041,61.427 207.009,63.200 205.200 C 65.164 203.196,67.600 202.864,67.600 204.600 C 67.600 205.222,67.827 205.600,68.200 205.600 C 68.530 205.600,68.800 205.343,68.800 205.029 C 68.800 204.714,68.530 204.187,68.200 203.857 C 67.870 203.527,67.600 202.920,67.600 202.507 C 67.600 202.094,67.006 201.182,66.281 200.478 C 64.820 199.062,64.733 199.027,64.157 199.603 M65.414 256.423 C 65.760 256.982,65.290 258.800,64.800 258.800 C 64.588 258.800,64.305 258.360,64.170 257.823 C 63.915 256.806,64.193 256.000,64.800 256.000 C 64.994 256.000,65.270 256.190,65.414 256.423 M60.029 296.654 C 59.200 297.708,59.200 297.717,59.200 348.854 L 59.200 400.000 61.604 400.000 L 64.009 400.000 63.904 348.642 C 63.803 298.777,63.778 297.259,63.038 296.442 C 62.015 295.312,61.030 295.381,60.029 296.654 " stroke="none" fill="#53b759" fill-rule="evenodd"></path><path id="path2" d="M142.000 26.767 C 142.000 53.791,142.038 54.800,143.043 54.800 C 144.332 54.800,145.200 56.338,145.200 58.623 C 145.200 60.533,145.384 61.076,146.500 62.468 L 147.800 64.089 147.800 69.324 L 147.800 74.560 149.035 74.816 C 151.770 75.383,151.595 76.800,148.790 76.800 C 146.356 76.800,144.400 78.779,144.400 81.241 C 144.400 82.952,144.273 83.213,143.079 83.951 C 140.639 85.459,139.200 87.402,139.200 89.189 C 139.200 90.994,138.005 91.505,137.219 90.036 C 136.417 88.537,132.790 90.607,131.994 93.019 C 131.633 94.111,131.283 94.423,130.186 94.629 C 129.438 94.769,128.425 95.231,127.936 95.656 C 127.447 96.080,126.802 96.333,126.502 96.218 C 126.181 96.095,125.679 96.499,125.279 97.202 C 124.765 98.105,124.309 98.397,123.400 98.404 C 122.192 98.412,121.102 98.871,121.166 99.345 C 121.419 101.237,121.137 101.998,120.100 102.223 C 117.961 102.688,117.200 103.278,117.200 104.471 C 117.200 105.425,116.941 105.710,115.580 106.255 C 114.345 106.749,113.905 107.174,113.732 108.041 C 113.603 108.684,112.919 109.625,112.155 110.207 C 111.413 110.773,110.701 111.655,110.572 112.167 C 110.424 112.758,109.654 113.447,108.469 114.049 C 107.199 114.695,106.559 115.291,106.471 115.907 C 106.387 116.501,105.867 117.012,104.962 117.390 C 104.160 117.725,103.292 118.513,102.891 119.270 C 102.511 119.987,101.704 121.058,101.097 121.650 C 99.892 122.826,98.428 125.731,98.400 127.000 C 98.389 127.502,97.901 128.024,97.091 128.400 C 96.112 128.855,95.655 129.443,95.200 130.831 C 94.870 131.838,94.039 133.368,93.353 134.231 C 92.667 135.094,91.816 136.804,91.461 138.032 C 90.990 139.667,90.553 140.384,89.830 140.714 C 88.869 141.151,87.600 144.200,87.600 146.070 C 87.600 146.468,87.075 147.262,86.434 147.833 C 85.079 149.040,84.616 150.095,83.992 153.400 C 83.729 154.793,83.065 156.476,82.409 157.410 C 81.123 159.244,80.582 161.068,80.212 164.820 C 79.955 167.422,79.707 168.094,78.232 170.181 C 77.312 171.482,76.870 174.978,76.546 183.531 C 76.159 193.731,76.973 195.046,83.732 195.138 C 85.894 195.168,87.798 195.275,87.963 195.377 C 89.119 196.092,110.815 196.969,112.854 196.384 C 113.514 196.195,114.428 195.563,114.887 194.980 C 115.346 194.397,116.491 193.589,117.433 193.186 C 119.599 192.258,119.877 191.683,119.946 188.000 C 120.109 179.382,120.461 176.452,121.475 175.303 C 122.941 173.639,123.528 172.336,123.828 170.074 C 124.036 168.506,124.291 167.962,124.908 167.766 C 125.352 167.625,126.221 166.992,126.839 166.360 C 127.591 165.591,128.189 165.298,128.647 165.473 C 129.132 165.659,129.241 165.590,129.022 165.235 C 128.827 164.920,129.200 164.986,130.027 165.414 C 131.230 166.036,131.382 166.039,131.811 165.453 C 132.068 165.101,132.396 164.900,132.540 165.006 C 132.683 165.113,132.726 165.096,132.636 164.969 C 132.546 164.843,132.800 163.988,133.200 163.069 C 134.320 160.505,133.806 158.541,131.843 157.879 C 130.477 157.419,132.645 156.341,134.681 156.467 C 136.247 156.565,136.760 156.469,136.620 156.106 C 136.515 155.834,136.777 155.426,137.202 155.199 C 137.836 154.860,137.905 154.603,137.589 153.770 C 137.361 153.172,137.355 152.848,137.572 152.983 C 137.776 153.109,138.063 152.833,138.210 152.369 C 138.395 151.787,138.712 151.588,139.239 151.726 C 139.721 151.852,140.000 151.719,140.000 151.363 C 140.000 150.589,140.547 150.658,141.338 151.531 C 142.756 153.099,141.961 155.748,139.952 156.150 C 137.611 156.618,137.434 157.119,138.999 158.851 C 139.769 159.704,140.400 160.647,140.400 160.945 C 140.400 161.244,140.860 162.167,141.423 162.996 C 142.200 164.141,142.285 164.441,141.777 164.247 C 141.378 164.094,141.611 164.563,142.354 165.409 C 143.039 166.189,143.618 167.137,143.640 167.514 C 143.665 167.954,143.795 167.841,144.000 167.200 C 144.225 166.498,144.332 166.415,144.360 166.920 C 144.382 167.316,144.102 168.216,143.738 168.920 C 143.099 170.156,143.102 170.179,143.815 169.600 C 144.344 169.170,144.461 169.153,144.228 169.541 C 144.049 169.838,143.283 170.341,142.525 170.657 C 140.760 171.395,140.798 172.799,142.600 173.400 C 144.549 174.050,144.800 174.362,144.794 176.124 C 144.786 178.146,144.518 178.623,143.081 179.169 L 141.979 179.588 142.090 192.943 C 142.177 203.499,142.095 206.258,141.700 206.106 C 140.760 205.745,141.186 207.499,142.200 208.163 C 143.488 209.007,143.571 211.997,142.400 215.400 C 141.475 218.087,141.469 218.128,142.000 217.800 C 142.503 217.489,142.504 217.478,141.812 219.400 C 141.056 221.497,141.051 224.678,141.800 226.800 C 142.510 228.812,142.522 228.923,142.000 228.600 C 141.231 228.125,141.608 229.483,142.455 230.238 C 142.925 230.657,143.548 231.540,143.839 232.200 L 144.369 233.400 144.384 231.989 C 144.393 231.213,144.104 230.155,143.741 229.638 C 143.127 228.760,143.129 228.671,143.778 228.309 C 144.160 228.095,144.719 227.353,145.021 226.660 L 145.570 225.400 145.597 227.000 C 145.612 227.880,145.631 228.960,145.639 229.400 C 145.648 229.840,145.496 231.323,145.301 232.695 C 145.045 234.505,145.087 235.521,145.455 236.395 C 146.048 237.806,145.872 237.770,148.234 236.968 L 150.096 236.336 151.448 237.646 C 154.595 240.697,152.960 244.964,148.400 245.600 C 146.489 245.866,145.655 246.180,145.251 246.781 C 144.858 247.368,144.269 247.600,143.175 247.600 C 142.335 247.600,141.551 247.756,141.433 247.946 C 141.315 248.137,140.739 248.201,140.152 248.089 L 139.085 247.885 139.967 248.767 C 140.452 249.252,140.791 249.953,140.721 250.325 C 140.520 251.376,139.073 251.343,138.059 250.263 L 137.147 249.292 138.274 248.493 C 138.893 248.053,139.760 247.625,140.200 247.541 C 142.440 247.115,140.747 245.329,137.200 244.377 C 135.762 243.992,135.558 243.838,136.185 243.612 C 136.911 243.351,136.896 243.309,135.985 243.064 C 134.461 242.654,133.404 240.949,133.941 239.770 C 134.439 238.676,131.122 237.345,128.761 237.691 C 127.768 237.837,127.600 237.729,127.600 236.945 C 127.600 235.927,125.413 233.200,124.596 233.200 C 124.274 233.200,123.969 232.432,123.798 231.187 C 123.414 228.396,122.155 225.120,121.184 224.388 C 120.488 223.863,120.369 223.315,120.359 220.587 C 120.326 211.803,119.433 207.582,117.477 206.961 C 117.009 206.812,115.903 205.982,115.019 205.115 L 113.411 203.540 102.006 203.762 C 90.921 203.978,88.387 204.176,81.894 205.333 C 76.560 206.284,76.178 207.142,76.542 217.379 C 76.848 225.981,77.211 228.282,78.723 231.200 C 79.466 232.635,80.042 234.627,80.377 236.927 C 80.792 239.777,81.153 240.845,82.256 242.484 C 83.304 244.041,83.726 245.220,84.070 247.556 C 84.456 250.178,84.699 250.771,85.820 251.836 C 86.767 252.736,87.297 253.769,87.770 255.636 C 88.251 257.533,88.772 258.536,89.773 259.491 C 90.690 260.365,91.215 261.306,91.402 262.410 C 91.562 263.356,92.247 264.743,93.037 265.719 C 93.785 266.644,94.741 268.141,95.161 269.046 C 95.582 269.952,96.462 271.074,97.117 271.541 C 97.859 272.070,98.401 272.882,98.554 273.695 C 98.708 274.516,99.306 275.405,100.166 276.090 C 100.918 276.690,101.996 278.161,102.563 279.359 C 103.130 280.557,104.090 281.926,104.697 282.402 C 105.304 282.878,105.994 283.627,106.232 284.067 C 106.469 284.506,107.355 285.256,108.201 285.733 C 109.341 286.376,109.881 287.031,110.292 288.269 C 110.695 289.484,111.148 290.043,111.956 290.325 C 112.612 290.553,113.273 291.210,113.570 291.928 C 113.867 292.646,114.638 293.412,115.452 293.798 C 116.432 294.263,116.899 294.795,117.068 295.640 C 117.307 296.835,118.515 298.000,119.515 298.000 C 119.810 298.000,120.527 298.564,121.107 299.254 C 121.688 299.944,122.777 300.766,123.528 301.079 C 124.279 301.393,125.339 302.179,125.882 302.825 C 126.426 303.471,127.103 304.000,127.387 304.000 C 127.670 304.000,128.108 304.248,128.360 304.552 C 128.612 304.855,129.355 305.211,130.011 305.342 C 130.868 305.514,131.394 305.979,131.879 306.998 C 132.384 308.055,132.941 308.530,134.078 308.870 C 135.246 309.221,135.600 309.533,135.600 310.214 C 135.600 311.309,136.206 311.823,137.928 312.192 C 139.199 312.464,139.251 312.548,139.153 314.154 C 139.023 316.259,139.318 316.743,140.583 316.501 C 142.352 316.163,143.843 316.728,143.112 317.459 C 142.562 318.010,142.366 318.003,141.191 317.396 C 140.018 316.789,139.909 316.785,140.129 317.360 C 140.496 318.316,139.808 318.133,138.742 316.991 C 136.369 314.449,134.651 313.977,134.307 315.773 C 134.074 316.991,134.639 317.600,136.000 317.600 C 137.322 317.600,138.000 318.278,138.000 319.600 C 138.000 320.875,138.671 321.600,139.851 321.600 C 140.773 321.600,142.400 323.294,142.400 324.254 C 142.400 324.854,143.823 325.010,144.170 324.448 C 144.290 324.255,144.745 324.003,145.182 323.889 C 146.102 323.648,145.411 325.862,144.123 327.285 C 143.767 327.678,143.665 328.000,143.895 328.000 C 144.126 328.000,144.418 327.730,144.545 327.400 C 145.127 325.881,145.389 327.132,145.261 330.833 C 145.139 334.402,145.214 334.966,145.911 335.733 C 147.408 337.378,147.563 338.194,147.554 344.411 C 147.546 350.662,147.289 351.964,145.826 353.178 C 145.388 353.542,145.200 354.403,145.200 356.049 C 145.200 358.465,144.362 360.000,143.043 360.000 C 142.050 360.000,142.000 360.999,142.000 380.633 L 142.000 400.000 216.000 400.000 L 290.000 400.000 290.000 378.819 C 290.000 355.517,290.055 356.053,287.521 354.760 C 284.358 353.146,285.487 349.200,289.111 349.200 C 290.955 349.200,291.428 349.033,292.431 348.031 L 293.600 346.862 293.600 341.050 C 293.600 332.762,293.327 332.400,287.061 332.400 C 282.771 332.400,282.401 332.180,282.396 329.620 C 282.393 328.085,282.581 327.643,283.591 326.800 C 284.881 325.723,285.351 324.012,284.444 323.692 C 284.123 323.579,283.999 323.675,284.151 323.920 C 284.295 324.154,284.226 324.461,283.997 324.602 C 283.768 324.744,283.606 324.711,283.637 324.530 C 283.802 323.581,283.501 323.352,282.300 323.518 C 281.585 323.617,280.696 323.963,280.325 324.288 C 279.153 325.313,278.679 324.512,278.915 321.907 C 279.168 319.119,280.686 315.863,281.823 315.670 C 283.203 315.436,286.304 313.085,286.860 311.852 C 287.239 311.012,287.908 310.472,289.100 310.044 C 290.646 309.490,291.374 308.800,290.413 308.800 C 290.199 308.800,290.129 308.530,290.255 308.200 C 290.522 307.505,289.947 307.441,288.127 307.963 C 286.635 308.392,286.125 308.092,287.106 307.364 C 287.760 306.879,287.757 306.817,287.039 306.285 C 286.184 305.652,287.820 304.800,289.890 304.800 C 291.129 304.800,293.201 302.751,293.196 301.531 C 293.194 301.019,293.682 299.216,294.280 297.525 C 295.267 294.736,295.312 294.382,294.756 293.725 C 293.778 292.568,293.857 290.751,294.926 289.815 C 295.907 288.956,296.826 287.419,297.585 285.368 C 298.073 284.049,299.029 283.828,300.167 284.772 C 300.692 285.208,300.802 285.204,300.814 284.749 C 300.822 284.447,301.086 284.650,301.400 285.200 C 301.743 285.801,301.978 285.960,301.988 285.600 C 301.997 285.270,302.272 284.488,302.599 283.862 C 303.152 282.800,303.139 282.709,302.396 282.515 C 301.958 282.400,301.586 282.103,301.569 281.853 C 301.553 281.604,301.468 281.040,301.382 280.600 C 301.081 279.057,301.551 278.345,302.527 278.868 C 303.007 279.125,303.445 279.305,303.500 279.268 C 303.867 279.020,304.329 279.313,304.639 279.990 C 305.234 281.292,305.958 280.346,306.173 277.984 C 306.283 276.783,306.557 274.720,306.784 273.400 C 307.010 272.080,307.196 270.908,307.198 270.796 C 307.199 270.684,307.679 270.075,308.264 269.444 C 309.177 268.460,309.258 268.185,308.834 267.507 C 308.548 267.048,308.521 266.828,308.770 266.982 C 309.007 267.128,309.200 267.037,309.200 266.781 C 309.200 266.520,308.921 266.421,308.567 266.557 C 308.219 266.691,307.395 266.800,306.735 266.800 C 305.713 266.800,305.445 267.030,304.926 268.352 C 304.511 269.410,303.853 270.147,302.858 270.669 C 301.804 271.223,301.257 271.867,300.886 272.992 C 300.603 273.848,299.689 275.190,298.855 275.974 C 298.020 276.758,296.938 278.240,296.449 279.267 C 295.960 280.294,295.075 281.451,294.480 281.840 C 293.886 282.228,292.002 283.908,290.294 285.573 C 288.586 287.238,285.346 290.400,283.094 292.600 C 278.080 297.499,275.233 299.863,273.119 300.885 C 272.232 301.313,271.123 302.090,270.653 302.610 C 270.184 303.131,268.648 304.015,267.240 304.575 C 265.832 305.135,264.438 305.939,264.141 306.364 C 263.843 306.788,262.456 307.516,261.057 307.981 C 259.658 308.447,258.110 309.257,257.617 309.782 C 256.640 310.822,255.652 311.262,252.600 312.020 C 251.484 312.297,250.066 313.016,249.393 313.647 C 248.423 314.555,247.565 314.870,245.030 315.247 C 242.378 315.641,241.642 315.925,240.423 317.026 C 239.073 318.246,238.633 318.381,234.076 318.974 C 231.383 319.324,228.239 319.977,227.090 320.424 C 221.923 322.434,209.500 323.180,207.492 321.601 L 206.477 320.802 206.467 303.722 L 206.456 286.641 207.779 285.394 C 208.870 284.365,209.470 284.131,211.218 284.051 C 212.382 283.998,213.980 283.677,214.768 283.337 C 217.124 282.323,218.383 281.998,223.123 281.181 C 226.836 280.541,227.910 280.192,229.123 279.232 C 230.459 278.174,231.363 277.830,234.910 277.030 C 235.521 276.892,236.691 276.175,237.510 275.435 C 238.330 274.695,239.810 273.860,240.800 273.579 C 241.790 273.298,243.230 272.488,244.000 271.778 C 244.770 271.068,245.796 270.368,246.280 270.223 C 246.764 270.078,247.978 269.186,248.978 268.241 C 249.979 267.296,251.474 266.218,252.301 265.845 C 253.128 265.472,254.115 264.626,254.494 263.965 C 254.873 263.305,255.738 262.571,256.417 262.334 C 257.135 262.084,258.057 261.260,258.623 260.363 C 259.158 259.516,260.122 258.551,260.765 258.218 C 261.529 257.823,262.028 257.182,262.208 256.365 C 262.379 255.585,262.913 254.869,263.629 254.458 C 264.260 254.096,265.187 252.990,265.688 252.000 C 266.190 251.010,267.251 249.480,268.046 248.600 C 268.842 247.720,269.770 246.460,270.108 245.800 C 270.447 245.140,271.180 244.206,271.737 243.724 C 272.465 243.095,272.889 242.137,273.243 240.324 C 273.631 238.335,274.012 237.545,275.041 236.596 C 276.096 235.623,276.401 234.969,276.628 233.196 C 276.950 230.678,277.650 229.091,278.790 228.292 C 279.981 227.458,280.739 225.260,281.192 221.330 C 281.415 219.389,281.938 216.689,282.353 215.330 C 282.833 213.761,283.036 212.213,282.909 211.086 C 282.691 209.156,283.051 208.375,285.574 205.300 L 286.969 203.600 289.923 203.600 C 293.882 203.600,295.079 202.914,295.268 200.535 C 295.344 199.582,295.239 198.746,295.036 198.679 C 294.639 198.546,297.591 194.461,298.111 194.423 C 298.281 194.410,299.214 195.193,300.184 196.163 C 301.759 197.738,302.109 197.909,303.473 197.768 C 305.936 197.515,306.730 198.149,306.500 200.187 C 306.319 201.794,306.385 201.934,307.615 202.548 C 309.326 203.401,309.628 203.377,311.290 202.249 C 312.061 201.726,313.319 201.091,314.087 200.837 C 316.356 200.089,318.209 197.200,316.420 197.200 C 316.258 197.200,315.787 196.571,315.373 195.801 C 314.601 194.367,314.612 194.372,310.500 193.786 C 307.241 193.322,306.939 193.180,306.283 191.805 C 305.715 190.614,305.279 190.338,302.799 189.600 C 300.671 188.966,299.878 188.532,299.623 187.861 C 299.168 186.663,298.471 186.164,296.814 185.849 C 295.347 185.570,291.600 182.042,291.600 180.940 C 291.600 180.626,290.826 179.612,289.879 178.685 C 288.506 177.341,288.056 176.537,287.653 174.709 C 287.247 172.873,286.934 172.316,286.073 171.904 C 284.049 170.933,283.880 169.464,284.387 157.262 C 284.807 147.174,284.790 146.244,284.162 145.286 L 283.482 144.247 282.641 145.375 C 282.178 145.995,281.055 147.244,280.145 148.151 C 279.235 149.058,278.372 150.192,278.227 150.671 C 278.083 151.150,277.333 151.914,276.562 152.369 C 275.746 152.851,274.978 153.718,274.726 154.442 C 274.436 155.272,273.841 155.875,272.935 156.253 C 272.083 156.609,271.333 157.332,270.922 158.194 C 270.527 159.023,269.817 159.725,269.132 159.964 C 268.508 160.181,267.631 160.979,267.184 161.737 C 266.737 162.495,265.845 163.333,265.201 163.600 C 264.557 163.866,263.565 164.695,262.995 165.442 C 261.177 167.826,259.314 166.892,258.193 163.036 C 257.751 161.513,257.304 160.760,256.737 160.580 C 256.285 160.436,255.573 159.535,255.142 158.561 C 254.668 157.490,253.906 156.565,253.193 156.197 C 252.550 155.864,251.816 155.189,251.563 154.696 C 251.309 154.203,250.359 153.052,249.451 152.137 C 248.543 151.223,246.720 149.284,245.400 147.828 C 244.080 146.372,242.358 144.839,241.573 144.420 C 240.789 144.001,239.912 143.376,239.625 143.030 C 239.338 142.684,238.055 141.931,236.773 141.356 C 232.922 139.627,232.696 139.122,234.825 137.005 C 235.801 136.034,237.050 134.782,237.600 134.224 C 238.150 133.665,238.960 132.848,239.400 132.409 C 239.840 131.969,242.315 129.492,244.901 126.905 C 247.486 124.317,250.940 120.940,252.575 119.400 C 256.838 115.386,256.979 115.452,243.687 115.185 C 232.214 114.953,232.087 114.931,228.871 112.603 C 228.140 112.073,226.751 111.522,225.784 111.377 C 224.497 111.184,223.676 110.741,222.714 109.722 C 221.991 108.957,220.935 108.122,220.367 107.866 C 218.693 107.111,215.368 103.897,214.491 102.185 C 214.044 101.313,213.230 100.183,212.684 99.672 C 209.465 96.669,205.715 84.777,206.562 80.261 C 207.075 77.528,205.265 77.679,240.644 77.425 C 258.220 77.299,276.110 77.097,280.400 76.976 C 284.690 76.855,294.320 76.746,301.800 76.735 C 316.923 76.713,318.973 76.483,319.040 74.800 C 319.061 74.250,319.129 73.665,319.190 73.500 C 319.524 72.591,319.274 72.131,318.103 71.500 C 317.388 71.115,316.525 70.800,316.186 70.800 C 315.846 70.800,314.862 70.440,314.000 70.000 C 313.138 69.560,311.716 69.200,310.842 69.200 C 309.968 69.200,308.745 68.994,308.126 68.741 C 306.384 68.032,305.532 68.119,303.800 69.182 C 301.418 70.643,294.800 70.114,294.800 68.462 C 294.800 68.254,293.871 67.480,292.735 66.742 C 291.599 66.004,290.483 65.277,290.254 65.126 C 289.985 64.949,290.162 64.162,290.759 62.888 L 291.679 60.923 290.840 59.278 C 290.010 57.651,290.000 57.295,290.000 28.816 L 290.000 0.000 216.000 0.000 L 142.000 0.000 142.000 26.767 M192.177 78.319 L 193.354 79.034 193.435 96.312 L 193.516 113.591 192.132 114.806 C 190.883 115.902,190.566 115.997,188.874 115.775 C 187.571 115.604,186.452 115.736,185.200 116.209 C 182.782 117.123,178.399 118.210,175.088 118.717 C 173.280 118.994,171.746 119.535,170.488 120.339 C 169.449 121.002,167.700 121.764,166.600 122.030 C 164.224 122.606,163.292 123.035,162.147 124.076 C 161.678 124.502,160.241 125.279,158.953 125.802 C 157.666 126.326,155.890 127.314,155.006 127.999 C 154.123 128.683,152.590 129.776,151.600 130.426 C 146.703 133.644,145.545 134.612,140.075 140.064 C 134.610 145.510,131.724 148.985,129.706 152.554 C 129.097 153.629,128.133 155.069,127.561 155.754 C 126.990 156.439,126.190 157.883,125.783 158.962 C 125.377 160.041,124.599 161.453,124.055 162.099 C 123.511 162.746,122.648 164.550,122.138 166.109 C 121.627 167.668,120.767 169.586,120.226 170.372 C 119.536 171.374,119.044 172.994,118.579 175.800 C 118.214 178.000,117.371 181.150,116.705 182.800 C 115.904 184.785,115.450 186.680,115.364 188.400 C 115.117 193.307,114.580 193.426,94.200 193.071 L 79.800 192.821 78.843 191.722 C 77.270 189.916,77.975 180.263,80.210 173.000 C 80.752 171.240,81.452 168.314,81.765 166.497 C 82.079 164.681,82.878 162.071,83.541 160.697 C 84.204 159.324,85.035 157.070,85.387 155.688 C 85.740 154.307,86.632 152.057,87.371 150.688 C 88.110 149.320,88.933 147.480,89.201 146.600 C 89.468 145.720,90.220 144.320,90.872 143.488 C 91.523 142.657,92.337 141.127,92.681 140.088 C 93.024 139.050,93.829 137.643,94.471 136.961 C 95.113 136.280,96.162 134.615,96.802 133.261 C 97.442 131.908,98.125 130.800,98.319 130.800 C 98.514 130.800,99.140 129.943,99.710 128.895 C 100.280 127.847,101.212 126.553,101.780 126.019 C 102.348 125.485,103.249 124.304,103.783 123.393 C 104.316 122.483,107.058 119.494,109.876 116.750 C 112.694 114.006,116.440 110.262,118.200 108.429 C 119.960 106.596,122.340 104.487,123.489 103.743 C 124.637 102.999,125.757 102.055,125.976 101.645 C 126.195 101.235,127.162 100.530,128.123 100.078 C 129.085 99.626,130.396 98.818,131.036 98.282 C 131.676 97.746,133.111 96.847,134.225 96.285 C 135.339 95.723,136.509 94.951,136.825 94.570 C 137.141 94.189,138.570 93.353,140.000 92.712 C 141.430 92.071,142.972 91.198,143.427 90.772 C 143.882 90.346,145.386 89.554,146.770 89.012 C 148.153 88.470,150.031 87.596,150.943 87.071 C 151.854 86.546,154.120 85.711,155.978 85.217 C 157.836 84.723,160.291 83.791,161.434 83.146 C 162.923 82.306,164.608 81.809,167.386 81.392 C 169.517 81.072,172.100 80.439,173.126 79.986 C 177.944 77.854,189.716 76.825,192.177 78.319 M323.868 86.241 C 323.523 90.484,323.488 184.792,323.830 187.657 L 324.100 189.913 325.865 188.657 L 327.630 187.400 327.427 183.600 C 327.316 181.510,326.994 179.170,326.712 178.400 C 326.308 177.295,326.197 167.777,326.188 133.200 C 326.175 88.147,326.100 85.784,324.612 83.748 C 324.208 83.197,324.081 83.625,323.868 86.241 M146.498 143.400 C 146.393 143.950,146.238 144.400,146.153 144.400 C 146.069 144.400,146.000 143.950,146.000 143.400 C 146.000 142.850,146.155 142.400,146.345 142.400 C 146.534 142.400,146.603 142.850,146.498 143.400 M148.314 146.271 C 153.448 149.442,154.487 154.054,150.587 156.355 C 149.798 156.820,149.263 157.378,149.397 157.596 C 149.541 157.828,149.367 157.885,148.975 157.735 C 148.450 157.534,148.361 157.648,148.559 158.272 C 149.050 159.818,149.105 162.366,148.645 162.282 C 148.400 162.237,148.249 162.438,148.310 162.730 C 148.370 163.021,148.252 163.156,148.046 163.028 C 147.522 162.704,146.357 163.207,146.626 163.642 C 146.959 164.182,145.032 164.072,144.480 163.520 C 144.216 163.256,144.000 162.346,144.000 161.497 C 144.000 160.649,143.806 159.183,143.568 158.240 C 143.226 156.880,143.259 156.233,143.727 155.112 C 144.303 153.736,144.020 151.184,143.025 148.764 C 142.876 148.400,143.028 147.909,143.382 147.615 C 143.902 147.184,144.002 147.221,144.013 147.851 C 144.024 148.426,144.312 148.251,145.252 147.100 C 146.645 145.395,146.819 145.347,148.314 146.271 M128.486 162.438 C 128.298 164.650,127.600 164.814,127.600 162.647 C 127.600 161.288,127.745 160.785,128.100 160.910 C 128.400 161.016,128.554 161.628,128.486 162.438 M276.981 164.064 C 278.092 164.570,278.337 165.862,277.500 166.801 C 277.075 167.278,277.104 167.282,277.700 166.832 C 278.305 166.374,278.404 166.403,278.428 167.051 C 278.454 167.748,278.480 167.744,278.800 167.000 C 279.074 166.362,279.149 166.335,279.172 166.867 C 279.187 167.233,279.425 167.608,279.700 167.700 C 280.345 167.915,280.525 173.420,279.923 174.543 C 279.336 175.641,278.137 174.249,277.794 172.071 C 277.667 171.262,277.475 170.025,277.367 169.323 C 277.251 168.561,276.881 167.953,276.451 167.816 C 275.551 167.530,274.767 165.159,275.274 164.254 C 275.710 163.475,275.691 163.477,276.981 164.064 M138.157 168.229 C 137.859 169.417,138.459 170.217,139.382 169.862 C 140.277 169.519,140.580 168.498,139.996 167.795 C 139.246 166.892,138.445 167.081,138.157 168.229 M134.617 171.972 C 134.321 172.451,135.074 172.925,135.607 172.596 C 136.054 172.319,135.760 171.600,135.200 171.600 C 135.006 171.600,134.744 171.768,134.617 171.972 M283.884 190.300 C 284.026 190.685,284.738 191.787,285.464 192.748 L 286.786 194.496 285.912 195.748 C 285.432 196.437,284.879 197.110,284.685 197.245 C 284.491 197.379,284.347 197.604,284.366 197.745 C 284.473 198.543,284.355 198.819,284.000 198.600 C 283.780 198.464,283.600 198.556,283.600 198.803 C 283.600 199.069,283.278 199.152,282.815 199.005 C 282.383 198.868,281.646 198.962,281.175 199.213 C 280.435 199.610,280.370 199.583,280.687 199.016 C 280.911 198.616,280.902 197.623,280.666 196.468 C 280.169 194.044,280.592 191.611,281.518 191.568 C 282.023 191.545,282.055 191.479,281.640 191.315 C 281.218 191.148,281.317 190.912,282.040 190.356 C 283.243 189.431,283.559 189.421,283.884 190.300 M276.607 192.821 C 276.815 193.477,276.981 193.547,277.434 193.172 C 277.902 192.783,278.000 192.923,278.000 193.977 C 278.000 195.769,277.353 196.777,275.781 197.434 C 274.003 198.177,273.890 198.154,274.420 197.162 C 274.791 196.470,274.721 196.186,274.024 195.537 L 273.180 194.750 274.490 193.432 C 276.081 191.830,276.275 191.774,276.607 192.821 M280.002 202.164 C 278.747 202.724,277.929 201.746,278.995 200.959 C 279.705 200.436,279.847 200.449,280.311 201.084 C 280.757 201.695,280.714 201.847,280.002 202.164 M114.205 208.088 C 114.788 208.766,115.199 209.938,115.389 211.463 C 115.548 212.749,116.112 214.867,116.641 216.172 C 117.170 217.477,117.967 220.714,118.412 223.366 C 119.003 226.889,119.482 228.566,120.192 229.594 C 120.726 230.367,121.432 232.037,121.761 233.305 C 122.429 235.879,122.503 236.031,124.047 238.000 C 124.651 238.770,125.465 240.210,125.854 241.200 C 126.244 242.190,127.156 243.779,127.882 244.731 C 128.607 245.682,129.200 246.613,129.200 246.798 C 129.200 246.983,130.025 248.094,131.033 249.267 C 132.040 250.440,133.139 251.940,133.473 252.600 C 133.808 253.260,134.692 254.430,135.438 255.200 C 140.997 260.941,145.958 265.812,146.798 266.355 C 147.347 266.710,148.914 267.810,150.281 268.800 C 154.405 271.788,156.630 273.125,159.262 274.194 C 160.641 274.754,162.248 275.671,162.832 276.231 C 163.432 276.806,164.918 277.513,166.247 277.856 C 167.541 278.190,169.410 278.974,170.400 279.599 C 171.462 280.269,173.266 280.919,174.800 281.183 C 180.060 282.089,181.659 282.480,183.996 283.430 C 185.597 284.080,187.168 284.400,188.761 284.400 C 190.850 284.400,191.279 284.541,192.296 285.557 L 193.453 286.715 193.479 303.587 C 193.507 322.278,193.604 321.582,190.873 322.268 C 188.492 322.865,175.873 321.198,172.600 319.853 C 171.280 319.311,169.120 318.746,167.800 318.598 C 164.288 318.204,162.376 317.657,160.800 316.595 C 160.030 316.076,157.870 315.269,156.000 314.800 C 154.130 314.331,151.967 313.515,151.194 312.985 C 150.421 312.455,148.715 311.652,147.403 311.201 C 146.091 310.750,144.474 309.867,143.809 309.239 C 143.144 308.610,141.649 307.789,140.488 307.412 C 139.326 307.036,137.886 306.319,137.288 305.819 C 136.689 305.319,135.120 304.316,133.800 303.590 C 132.480 302.865,130.950 301.876,130.400 301.394 C 129.850 300.912,128.590 299.946,127.600 299.247 C 126.610 298.549,124.821 297.271,123.625 296.408 C 121.218 294.670,104.000 277.457,104.000 276.788 C 104.000 276.556,103.214 275.518,102.253 274.483 C 101.292 273.447,100.186 271.970,99.796 271.200 C 99.406 270.430,98.654 269.281,98.125 268.647 C 97.595 268.012,96.790 266.752,96.336 265.847 C 95.881 264.941,95.172 263.830,94.758 263.378 C 94.345 262.926,93.453 261.413,92.776 260.016 C 92.100 258.619,91.107 256.901,90.571 256.197 C 90.034 255.494,89.233 253.815,88.791 252.466 C 88.348 251.118,87.564 249.392,87.048 248.632 C 86.532 247.872,85.802 246.024,85.426 244.525 C 85.050 243.026,84.225 240.895,83.592 239.788 C 82.772 238.353,82.205 236.429,81.614 233.078 C 81.158 230.494,80.338 227.009,79.790 225.332 C 77.916 219.588,77.374 210.104,78.817 208.270 C 79.845 206.963,81.079 206.887,99.756 206.981 L 113.312 207.050 114.205 208.088 M323.853 210.034 C 323.534 211.629,323.608 220.996,323.952 222.600 L 324.209 223.800 325.056 222.400 C 326.972 219.231,327.148 215.689,325.613 211.210 C 324.731 208.637,324.203 208.285,323.853 210.034 M135.012 219.717 C 134.841 220.112,134.813 220.547,134.951 220.684 C 135.357 221.090,135.684 220.520,135.497 219.731 C 135.332 219.033,135.310 219.032,135.012 219.717 M320.352 232.258 C 319.955 232.736,319.831 234.020,319.896 236.958 C 319.998 241.519,319.838 241.971,317.978 242.351 C 316.397 242.674,316.137 243.384,315.757 248.400 C 315.493 251.879,315.239 252.383,313.743 252.394 C 312.514 252.403,311.842 255.681,312.642 257.765 C 313.078 258.902,315.098 257.304,315.866 255.214 C 316.233 254.216,316.827 253.040,317.186 252.600 C 318.528 250.955,320.370 245.774,320.812 242.400 C 321.140 239.892,321.553 238.528,322.384 237.200 C 323.482 235.448,323.680 234.300,323.057 233.293 C 322.890 233.022,322.898 232.799,323.076 232.798 C 323.254 232.796,322.884 232.526,322.254 232.198 C 320.858 231.469,321.011 231.464,320.352 232.258 M150.800 240.668 C 150.800 242.343,150.623 243.042,150.101 243.423 C 149.716 243.704,149.537 244.070,149.702 244.236 C 149.868 244.401,150.452 244.114,151.002 243.599 C 152.193 242.480,152.468 239.065,151.400 238.655 C 150.911 238.468,150.800 238.839,150.800 240.668 M147.889 249.467 C 147.966 249.697,147.511 249.790,146.811 249.687 C 145.470 249.490,145.501 249.524,145.849 248.616 C 146.113 247.929,147.580 248.541,147.889 249.467 M143.120 252.080 C 143.384 252.344,143.600 252.974,143.600 253.480 C 143.600 254.672,142.206 254.733,141.583 253.569 C 140.774 252.056,141.953 250.913,143.120 252.080 M147.366 257.055 C 147.602 257.672,146.573 258.554,146.018 258.211 C 145.788 258.069,145.600 257.615,145.600 257.201 C 145.600 256.354,147.051 256.234,147.366 257.055 M309.067 260.667 C 308.718 261.015,308.721 263.788,309.070 264.136 C 309.541 264.608,311.116 261.457,310.687 260.900 C 310.268 260.356,309.490 260.244,309.067 260.667 M287.677 319.883 C 286.054 320.198,286.991 320.996,289.131 321.121 C 290.920 321.225,291.200 321.142,291.200 320.503 C 291.200 319.737,289.745 319.481,287.677 319.883 " stroke="none" fill="#52ad9a" fill-rule="evenodd"></path><path id="path3" d="M210.401 77.917 C 207.000 78.179,206.285 80.238,207.350 86.703 C 208.062 91.030,210.581 96.716,213.199 99.910 C 216.256 103.639,219.059 106.512,220.200 107.085 C 220.860 107.417,222.030 108.290,222.800 109.027 C 223.707 109.894,225.144 110.657,226.883 111.193 C 228.359 111.649,229.687 112.217,229.835 112.456 C 230.875 114.139,233.538 114.582,243.889 114.794 C 253.579 114.992,254.013 115.034,254.849 115.871 L 255.720 116.742 249.960 122.559 C 246.792 125.759,244.020 128.560,243.800 128.783 C 243.580 129.006,242.770 129.806,242.000 130.559 C 239.919 132.596,237.696 135.164,236.180 137.281 L 234.834 139.163 237.211 140.607 C 238.519 141.401,239.726 142.283,239.894 142.567 C 240.062 142.851,240.920 143.539,241.800 144.097 C 243.411 145.117,250.090 151.612,253.800 155.768 C 254.900 157.000,256.348 158.591,257.017 159.304 C 257.686 160.017,258.822 161.631,259.541 162.890 L 260.848 165.181 262.924 163.796 C 264.066 163.034,266.204 161.193,267.675 159.705 C 269.146 158.217,270.629 156.730,270.970 156.400 C 271.311 156.070,274.217 153.210,277.427 150.044 L 283.265 144.287 284.133 145.154 C 284.965 145.985,285.008 146.427,285.200 156.138 L 285.400 166.255 286.843 169.028 C 287.637 170.552,288.607 172.790,288.999 174.000 C 289.391 175.210,290.362 176.968,291.156 177.906 C 294.080 181.361,297.768 185.200,298.163 185.200 C 298.387 185.200,299.297 185.891,300.185 186.736 C 301.073 187.581,302.700 188.598,303.800 188.997 C 304.900 189.395,306.520 190.227,307.400 190.845 C 309.327 192.198,311.304 192.665,316.635 193.030 L 320.670 193.305 321.514 191.939 L 322.359 190.572 322.279 135.097 L 322.200 79.622 321.312 78.734 L 320.424 77.846 266.312 77.812 C 236.550 77.793,211.390 77.840,210.401 77.917 M177.800 78.596 C 176.260 78.885,174.159 79.501,173.131 79.966 C 172.102 80.430,169.517 81.072,167.386 81.392 C 164.608 81.809,162.923 82.306,161.434 83.146 C 160.291 83.791,157.836 84.723,155.978 85.217 C 154.120 85.711,151.854 86.546,150.943 87.071 C 150.031 87.596,148.153 88.470,146.770 89.012 C 145.386 89.554,143.882 90.346,143.427 90.772 C 142.972 91.198,141.430 92.071,140.000 92.712 C 138.570 93.353,137.141 94.189,136.825 94.570 C 136.509 94.951,135.339 95.723,134.225 96.285 C 133.111 96.847,131.676 97.746,131.036 98.282 C 130.396 98.818,129.085 99.626,128.123 100.078 C 127.162 100.530,126.195 101.235,125.976 101.645 C 125.757 102.055,124.637 102.999,123.489 103.743 C 122.340 104.487,119.960 106.596,118.200 108.429 C 116.440 110.262,112.694 114.006,109.876 116.750 C 107.058 119.494,104.316 122.483,103.783 123.393 C 103.249 124.304,102.348 125.485,101.780 126.019 C 101.212 126.553,100.280 127.847,99.710 128.895 C 99.140 129.943,98.514 130.800,98.319 130.800 C 98.125 130.800,97.442 131.908,96.802 133.261 C 96.162 134.615,95.113 136.280,94.471 136.961 C 93.829 137.643,93.024 139.050,92.681 140.088 C 92.337 141.127,91.523 142.657,90.872 143.488 C 90.220 144.320,89.468 145.720,89.201 146.600 C 88.933 147.480,88.110 149.320,87.371 150.688 C 86.632 152.057,85.740 154.307,85.387 155.688 C 85.035 157.070,84.204 159.324,83.541 160.697 C 82.878 162.071,82.079 164.681,81.765 166.497 C 81.452 168.314,80.752 171.240,80.210 173.000 C 77.975 180.263,77.270 189.916,78.843 191.722 L 79.800 192.821 94.200 193.071 C 114.580 193.426,115.117 193.307,115.364 188.400 C 115.450 186.680,115.904 184.785,116.705 182.800 C 117.371 181.150,118.214 178.000,118.579 175.800 C 119.044 172.994,119.536 171.374,120.226 170.372 C 120.767 169.586,121.627 167.668,122.138 166.109 C 122.648 164.550,123.511 162.746,124.055 162.099 C 124.599 161.453,125.377 160.041,125.783 158.962 C 126.190 157.883,126.990 156.439,127.561 155.754 C 128.133 155.069,129.097 153.629,129.706 152.554 C 131.724 148.985,134.610 145.510,140.075 140.064 C 145.545 134.612,146.703 133.644,151.600 130.426 C 152.590 129.776,154.123 128.683,155.006 127.999 C 155.890 127.314,157.635 126.338,158.885 125.830 C 160.135 125.322,161.705 124.446,162.374 123.883 C 163.043 123.320,164.628 122.576,165.895 122.228 C 167.163 121.881,168.650 121.330,169.200 121.004 C 171.780 119.473,173.711 118.831,177.510 118.241 C 179.770 117.889,182.690 117.152,183.998 116.601 C 185.580 115.935,187.126 115.600,188.619 115.600 C 190.564 115.600,191.016 115.445,192.031 114.431 L 193.200 113.262 193.200 96.277 L 193.200 79.292 192.214 78.646 C 190.971 77.832,182.048 77.801,177.800 78.596 M82.917 207.072 C 78.583 207.283,77.998 207.911,78.003 212.354 C 78.008 217.011,78.690 221.961,79.790 225.332 C 80.338 227.009,81.158 230.494,81.614 233.078 C 82.205 236.429,82.772 238.353,83.592 239.788 C 84.225 240.895,85.050 243.026,85.426 244.525 C 85.802 246.024,86.532 247.872,87.048 248.632 C 87.564 249.392,88.348 251.118,88.791 252.466 C 89.233 253.815,90.034 255.494,90.571 256.197 C 91.107 256.901,92.100 258.619,92.776 260.016 C 93.453 261.413,94.345 262.926,94.758 263.378 C 95.172 263.830,95.881 264.941,96.336 265.847 C 96.790 266.752,97.595 268.012,98.125 268.647 C 98.654 269.281,99.406 270.430,99.796 271.200 C 100.186 271.970,101.292 273.447,102.253 274.483 C 103.214 275.518,104.000 276.556,104.000 276.788 C 104.000 277.457,121.218 294.670,123.625 296.408 C 124.821 297.271,126.610 298.549,127.600 299.247 C 128.590 299.946,129.850 300.912,130.400 301.394 C 130.950 301.876,132.480 302.865,133.800 303.590 C 135.120 304.316,136.689 305.319,137.288 305.819 C 137.886 306.319,139.326 307.036,140.488 307.412 C 141.649 307.789,143.144 308.610,143.809 309.239 C 144.474 309.867,146.091 310.750,147.403 311.201 C 148.715 311.652,150.421 312.455,151.194 312.985 C 151.967 313.515,154.130 314.331,156.000 314.800 C 157.870 315.269,160.030 316.076,160.800 316.595 C 162.376 317.657,164.288 318.204,167.800 318.598 C 169.120 318.746,171.280 319.311,172.600 319.853 C 177.612 321.912,190.131 322.756,192.146 321.171 L 193.200 320.342 193.200 303.745 C 193.200 293.126,193.052 286.870,192.788 286.378 C 192.171 285.224,190.264 284.400,188.212 284.400 C 187.191 284.400,185.311 283.964,183.954 283.413 C 182.618 282.870,180.417 282.231,179.062 281.994 C 177.708 281.757,175.626 281.392,174.436 281.182 C 173.246 280.973,171.446 280.275,170.436 279.632 C 169.426 278.989,167.541 278.190,166.247 277.856 C 164.918 277.513,163.432 276.806,162.832 276.231 C 162.248 275.671,160.641 274.754,159.262 274.194 C 156.630 273.125,154.405 271.788,150.281 268.800 C 148.914 267.810,147.347 266.710,146.798 266.355 C 145.958 265.812,140.997 260.941,135.438 255.200 C 134.692 254.430,133.808 253.260,133.473 252.600 C 133.139 251.940,132.040 250.440,131.033 249.267 C 130.025 248.094,129.200 246.983,129.200 246.798 C 129.200 246.613,128.607 245.682,127.882 244.731 C 127.156 243.779,126.244 242.190,125.854 241.200 C 125.465 240.210,124.651 238.770,124.047 238.000 C 122.503 236.031,122.429 235.879,121.761 233.305 C 121.432 232.037,120.726 230.367,120.192 229.594 C 119.482 228.566,119.003 226.889,118.412 223.366 C 117.967 220.714,117.170 217.477,116.641 216.172 C 116.112 214.867,115.548 212.749,115.389 211.463 C 115.199 209.938,114.788 208.766,114.205 208.088 L 113.312 207.050 99.756 206.981 C 92.300 206.943,84.722 206.984,82.917 207.072 M285.886 207.910 C 285.065 208.767,284.731 209.668,284.420 211.855 C 284.199 213.415,283.637 215.570,283.171 216.645 C 282.705 217.720,281.971 220.575,281.540 222.989 C 281.000 226.015,280.401 228.003,279.612 229.389 C 278.983 230.495,278.197 232.444,277.867 233.719 C 277.536 234.994,276.756 236.695,276.133 237.499 C 275.510 238.302,274.625 239.932,274.167 241.119 C 273.709 242.306,272.757 244.025,272.052 244.939 C 270.639 246.770,269.622 248.202,267.180 251.800 C 266.284 253.120,265.013 254.740,264.354 255.400 C 263.696 256.060,261.737 258.040,260.000 259.800 C 254.633 265.240,254.053 265.727,247.999 269.888 C 246.789 270.719,245.169 271.865,244.399 272.434 C 243.630 273.003,242.157 273.779,241.126 274.157 C 240.095 274.536,238.596 275.367,237.795 276.004 C 236.639 276.922,232.983 278.400,231.865 278.400 C 231.748 278.400,230.758 278.957,229.664 279.637 C 228.118 280.598,226.796 281.003,223.737 281.455 C 221.572 281.775,218.133 282.568,216.095 283.218 C 214.058 283.868,211.686 284.400,210.826 284.400 C 209.611 284.400,208.986 284.676,208.026 285.635 L 206.791 286.870 206.896 303.692 L 207.000 320.514 208.130 321.357 C 210.237 322.930,219.233 322.331,225.827 320.179 C 227.485 319.637,230.670 318.920,232.906 318.584 C 236.078 318.108,237.514 317.670,239.447 316.589 C 240.809 315.827,243.101 314.957,244.541 314.655 C 246.175 314.313,247.623 313.715,248.397 313.064 C 249.079 312.490,250.393 311.833,251.318 311.602 C 252.243 311.372,253.720 310.809,254.600 310.352 C 258.442 308.354,262.417 306.122,263.850 305.156 C 264.703 304.582,266.210 303.628,267.200 303.035 C 268.190 302.443,270.080 301.168,271.400 300.202 C 272.720 299.235,274.730 297.805,275.866 297.024 C 278.142 295.458,296.400 277.517,296.400 276.846 C 296.400 276.615,297.165 275.538,298.100 274.452 C 299.853 272.415,301.310 270.251,303.410 266.566 C 304.076 265.398,305.006 264.028,305.477 263.521 C 305.948 263.015,306.804 261.529,307.380 260.221 C 307.955 258.912,308.856 257.278,309.381 256.589 C 309.906 255.901,310.693 254.249,311.130 252.917 C 311.567 251.586,312.457 249.762,313.107 248.865 C 313.833 247.863,314.479 246.268,314.780 244.737 C 315.050 243.365,315.888 241.063,316.642 239.621 C 317.645 237.703,318.167 235.980,318.586 233.200 C 318.901 231.110,319.729 227.600,320.424 225.400 C 322.222 219.715,322.668 209.363,321.184 207.782 L 320.261 206.800 303.605 206.800 L 286.950 206.800 285.886 207.910 " stroke="none" fill="#f6fbfa" fill-rule="evenodd"></path><path id="path4" d="M55.600 28.820 C 55.600 61.329,55.694 62.349,58.371 58.946 C 59.192 57.902,59.200 57.624,59.200 28.946 L 59.200 0.000 57.400 0.000 L 55.600 0.000 55.600 28.820 M64.000 26.951 C 64.000 49.692,64.088 53.975,64.566 54.372 C 64.877 54.630,65.613 56.047,66.202 57.520 C 66.791 58.994,67.464 60.431,67.697 60.714 C 68.222 61.350,67.745 75.614,67.179 76.180 C 66.971 76.389,66.800 77.042,66.800 77.631 C 66.800 78.220,66.530 78.926,66.200 79.200 C 65.783 79.546,65.600 80.467,65.600 82.225 C 65.600 85.419,65.058 85.804,63.380 83.805 C 61.955 82.108,60.261 81.623,59.617 82.728 C 59.347 83.190,59.221 81.607,59.212 77.662 C 59.200 71.995,58.620 69.600,57.259 69.600 C 55.314 69.600,54.532 115.244,56.424 118.347 L 57.245 119.694 58.223 118.369 C 59.153 117.108,59.200 116.767,59.201 111.222 C 59.204 102.197,60.661 100.561,64.208 105.600 C 66.506 108.864,66.515 108.929,66.112 119.185 C 65.708 129.474,65.682 129.587,63.070 132.300 C 60.971 134.480,60.721 134.446,59.378 131.791 C 55.584 124.292,54.363 134.424,55.472 164.200 C 55.861 174.646,55.970 174.998,58.724 174.687 C 60.974 174.434,63.370 172.000,61.369 172.000 C 59.169 172.000,57.826 168.548,58.966 165.819 C 60.548 162.032,63.695 163.767,63.765 168.466 C 63.825 172.443,65.180 172.330,65.980 168.281 C 66.273 166.800,66.321 166.742,66.387 167.800 C 66.459 168.962,66.477 168.950,66.943 167.403 C 67.882 164.286,69.505 165.829,70.207 170.506 C 70.467 172.238,70.376 172.537,69.033 174.408 C 67.695 176.269,67.598 176.590,67.832 178.353 C 68.148 180.740,67.393 182.371,65.436 183.526 C 64.670 183.978,63.692 185.034,63.264 185.874 C 61.533 189.266,59.719 189.347,58.210 186.100 C 57.273 184.083,57.176 184.056,56.286 185.562 C 55.675 186.597,55.600 188.179,55.600 200.073 C 55.600 213.773,55.592 213.690,57.059 215.558 C 57.128 215.646,57.993 214.971,58.983 214.058 C 61.027 212.174,61.022 212.175,63.171 213.035 C 64.874 213.716,64.701 213.314,65.845 219.271 C 65.958 219.859,66.534 220.647,67.125 221.021 C 69.506 222.526,70.225 224.838,69.134 227.474 C 68.877 228.093,68.652 228.709,68.634 228.842 C 68.615 228.975,68.026 229.566,67.326 230.156 C 65.631 231.582,64.829 234.833,65.528 237.445 C 65.787 238.417,66.000 239.668,66.000 240.226 C 66.000 241.468,66.835 243.145,67.959 244.163 C 68.422 244.582,68.800 245.166,68.800 245.462 C 68.800 245.758,69.005 246.000,69.255 246.000 C 69.577 246.000,69.640 246.909,69.470 249.100 C 69.338 250.805,69.358 251.896,69.515 251.524 C 69.672 251.152,69.859 254.267,69.932 258.446 C 70.096 267.896,69.980 268.207,66.474 267.763 C 63.713 267.413,63.739 267.413,62.000 267.753 L 60.600 268.026 61.700 267.400 C 63.131 266.586,63.087 266.414,61.463 266.475 C 59.271 266.557,57.996 264.509,59.612 263.500 C 60.264 263.093,60.272 262.976,59.705 262.112 C 59.206 261.350,59.146 260.573,59.396 258.084 C 59.565 256.388,59.692 254.325,59.677 253.500 C 59.646 251.774,59.662 249.447,59.740 244.500 C 59.770 242.575,59.706 240.469,59.597 239.821 C 59.416 238.738,59.539 238.589,61.109 238.001 C 65.703 236.279,64.752 231.569,59.400 229.543 L 57.400 228.785 56.500 229.815 L 55.600 230.845 55.600 315.422 L 55.600 400.000 57.400 400.000 L 59.200 400.000 59.200 348.854 C 59.200 292.298,59.053 295.600,61.567 295.600 C 63.940 295.600,63.790 292.192,63.904 348.642 L 64.009 400.000 103.004 400.000 L 142.000 400.000 142.000 380.633 C 142.000 360.999,142.050 360.000,143.043 360.000 C 144.362 360.000,145.200 358.465,145.200 356.049 C 145.200 354.403,145.388 353.542,145.826 353.178 C 147.289 351.964,147.546 350.662,147.554 344.411 C 147.563 338.194,147.408 337.378,145.911 335.733 C 145.214 334.966,145.139 334.402,145.261 330.833 C 145.389 327.132,145.127 325.881,144.545 327.400 C 144.418 327.730,144.126 328.000,143.895 328.000 C 143.665 328.000,143.767 327.678,144.123 327.285 C 145.411 325.862,146.102 323.648,145.182 323.889 C 144.745 324.003,144.290 324.255,144.170 324.448 C 143.823 325.010,142.400 324.854,142.400 324.254 C 142.400 323.294,140.773 321.600,139.851 321.600 C 138.671 321.600,138.000 320.875,138.000 319.600 C 138.000 318.278,137.322 317.600,136.000 317.600 C 134.639 317.600,134.074 316.991,134.307 315.773 C 134.651 313.977,136.369 314.449,138.742 316.991 C 139.808 318.133,140.496 318.316,140.129 317.360 C 139.909 316.785,140.018 316.789,141.191 317.396 C 142.366 318.003,142.562 318.010,143.112 317.459 C 143.843 316.728,142.352 316.163,140.583 316.501 C 139.318 316.743,139.023 316.259,139.153 314.154 C 139.251 312.548,139.199 312.464,137.928 312.192 C 136.206 311.823,135.600 311.309,135.600 310.214 C 135.600 309.533,135.246 309.221,134.078 308.870 C 132.941 308.530,132.384 308.055,131.879 306.998 C 131.394 305.979,130.868 305.514,130.011 305.342 C 129.355 305.211,128.612 304.855,128.360 304.552 C 128.108 304.248,127.670 304.000,127.387 304.000 C 127.103 304.000,126.426 303.471,125.882 302.825 C 125.339 302.179,124.279 301.393,123.528 301.079 C 122.777 300.766,121.688 299.944,121.107 299.254 C 120.527 298.564,119.810 298.000,119.515 298.000 C 118.515 298.000,117.307 296.835,117.068 295.640 C 116.899 294.795,116.432 294.263,115.452 293.798 C 114.638 293.412,113.867 292.646,113.570 291.928 C 113.273 291.210,112.612 290.553,111.956 290.325 C 111.148 290.043,110.695 289.484,110.292 288.269 C 109.881 287.031,109.341 286.376,108.201 285.733 C 107.355 285.256,106.469 284.506,106.232 284.067 C 105.994 283.627,105.304 282.878,104.697 282.402 C 104.090 281.926,103.130 280.557,102.563 279.359 C 101.996 278.161,100.918 276.690,100.166 276.090 C 99.306 275.405,98.708 274.516,98.554 273.695 C 98.401 272.882,97.859 272.070,97.117 271.541 C 96.462 271.074,95.582 269.952,95.161 269.046 C 94.741 268.141,93.785 266.644,93.037 265.719 C 92.247 264.743,91.562 263.356,91.402 262.410 C 91.215 261.306,90.690 260.365,89.773 259.491 C 88.772 258.536,88.251 257.533,87.770 255.636 C 87.297 253.769,86.767 252.736,85.820 251.836 C 84.699 250.771,84.456 250.178,84.070 247.556 C 83.726 245.220,83.304 244.041,82.256 242.484 C 81.153 240.845,80.792 239.777,80.377 236.927 C 80.042 234.627,79.466 232.635,78.723 231.200 C 77.211 228.282,76.848 225.981,76.542 217.379 C 76.178 207.142,76.560 206.284,81.894 205.333 C 88.387 204.176,90.921 203.978,102.006 203.762 L 113.411 203.540 115.019 205.115 C 115.903 205.982,117.009 206.812,117.477 206.961 C 119.433 207.582,120.326 211.803,120.359 220.587 C 120.369 223.315,120.488 223.863,121.184 224.388 C 122.155 225.120,123.414 228.396,123.798 231.187 C 123.969 232.432,124.274 233.200,124.596 233.200 C 125.413 233.200,127.600 235.927,127.600 236.945 C 127.600 237.729,127.768 237.837,128.761 237.691 C 131.122 237.345,134.439 238.676,133.941 239.770 C 133.404 240.949,134.461 242.654,135.985 243.064 C 136.896 243.309,136.911 243.351,136.185 243.612 C 135.558 243.838,135.762 243.992,137.200 244.377 C 140.747 245.329,142.440 247.115,140.200 247.541 C 139.760 247.625,138.893 248.053,138.274 248.493 L 137.147 249.292 138.059 250.263 C 139.073 251.343,140.520 251.376,140.721 250.325 C 140.791 249.953,140.452 249.252,139.967 248.767 L 139.085 247.885 140.152 248.089 C 140.739 248.201,141.315 248.137,141.433 247.946 C 141.551 247.756,142.335 247.600,143.175 247.600 C 144.269 247.600,144.858 247.368,145.251 246.781 C 145.655 246.180,146.489 245.866,148.400 245.600 C 152.960 244.964,154.595 240.697,151.448 237.646 L 150.096 236.336 148.234 236.968 C 145.872 237.770,146.048 237.806,145.455 236.395 C 145.087 235.521,145.045 234.505,145.301 232.695 C 145.496 231.323,145.648 229.840,145.639 229.400 C 145.631 228.960,145.612 227.880,145.597 227.000 L 145.570 225.400 145.021 226.660 C 144.719 227.353,144.160 228.095,143.778 228.309 C 143.129 228.671,143.127 228.760,143.741 229.638 C 144.104 230.155,144.393 231.213,144.384 231.989 L 144.369 233.400 143.839 232.200 C 143.548 231.540,142.925 230.657,142.455 230.238 C 141.608 229.483,141.231 228.125,142.000 228.600 C 142.522 228.923,142.510 228.812,141.800 226.800 C 141.051 224.678,141.056 221.497,141.812 219.400 C 142.504 217.478,142.503 217.489,142.000 217.800 C 141.469 218.128,141.475 218.087,142.400 215.400 C 143.571 211.997,143.488 209.007,142.200 208.163 C 141.186 207.499,140.760 205.745,141.700 206.106 C 142.095 206.258,142.177 203.499,142.090 192.943 L 141.979 179.588 143.081 179.169 C 144.518 178.623,144.786 178.146,144.794 176.124 C 144.800 174.362,144.549 174.050,142.600 173.400 C 140.798 172.799,140.760 171.395,142.525 170.657 C 143.283 170.341,144.049 169.838,144.228 169.541 C 144.461 169.153,144.344 169.170,143.815 169.600 C 143.102 170.179,143.099 170.156,143.738 168.920 C 144.102 168.216,144.382 167.316,144.360 166.920 C 144.332 166.415,144.225 166.498,144.000 167.200 C 143.795 167.841,143.665 167.954,143.640 167.514 C 143.618 167.137,143.039 166.189,142.354 165.409 C 141.611 164.563,141.378 164.094,141.777 164.247 C 142.285 164.441,142.200 164.141,141.423 162.996 C 140.860 162.167,140.400 161.244,140.400 160.945 C 140.400 160.647,139.769 159.704,138.999 158.851 C 137.434 157.119,137.611 156.618,139.952 156.150 C 141.993 155.741,142.805 152.852,141.269 151.462 C 140.374 150.652,140.000 150.623,140.000 151.363 C 140.000 151.719,139.721 151.852,139.239 151.726 C 138.712 151.588,138.395 151.787,138.210 152.369 C 138.063 152.833,137.776 153.109,137.572 152.983 C 137.355 152.848,137.361 153.172,137.589 153.770 C 137.905 154.603,137.836 154.860,137.202 155.199 C 136.777 155.426,136.515 155.834,136.620 156.106 C 136.760 156.469,136.247 156.565,134.681 156.467 C 132.645 156.341,130.477 157.419,131.843 157.879 C 133.806 158.541,134.320 160.505,133.200 163.069 C 132.800 163.988,132.501 164.798,132.536 164.869 C 132.571 164.941,132.528 164.958,132.440 164.906 C 132.351 164.855,132.068 165.101,131.811 165.453 C 131.382 166.039,131.230 166.036,130.027 165.414 C 129.200 164.986,128.827 164.920,129.022 165.235 C 129.241 165.590,129.132 165.659,128.647 165.473 C 128.189 165.298,127.591 165.591,126.839 166.360 C 126.221 166.992,125.352 167.625,124.908 167.766 C 124.291 167.962,124.036 168.506,123.828 170.074 C 123.528 172.336,122.941 173.639,121.475 175.303 C 120.461 176.452,120.109 179.382,119.946 188.000 C 119.877 191.683,119.599 192.258,117.433 193.186 C 116.491 193.589,115.346 194.397,114.887 194.980 C 114.428 195.563,113.514 196.195,112.854 196.384 C 110.815 196.969,89.119 196.092,87.963 195.377 C 87.798 195.275,85.894 195.168,83.732 195.138 C 76.973 195.046,76.159 193.731,76.546 183.531 C 76.870 174.978,77.312 171.482,78.232 170.181 C 79.707 168.094,79.955 167.422,80.212 164.820 C 80.582 161.068,81.123 159.244,82.409 157.410 C 83.065 156.476,83.729 154.793,83.992 153.400 C 84.616 150.095,85.079 149.040,86.434 147.833 C 87.075 147.262,87.600 146.468,87.600 146.070 C 87.600 144.200,88.869 141.151,89.830 140.714 C 90.553 140.384,90.990 139.667,91.461 138.032 C 91.816 136.804,92.667 135.094,93.353 134.231 C 94.039 133.368,94.870 131.838,95.200 130.831 C 95.655 129.443,96.112 128.855,97.091 128.400 C 97.901 128.024,98.389 127.502,98.400 127.000 C 98.428 125.731,99.892 122.826,101.097 121.650 C 101.704 121.058,102.511 119.987,102.891 119.270 C 103.292 118.513,104.160 117.725,104.962 117.390 C 105.867 117.012,106.387 116.501,106.471 115.907 C 106.559 115.291,107.199 114.695,108.469 114.049 C 109.654 113.447,110.424 112.758,110.572 112.167 C 110.701 111.655,111.413 110.773,112.155 110.207 C 112.919 109.625,113.603 108.684,113.732 108.041 C 113.905 107.174,114.345 106.749,115.580 106.255 C 116.941 105.710,117.200 105.425,117.200 104.471 C 117.200 103.278,117.961 102.688,120.100 102.223 C 121.137 101.998,121.419 101.237,121.166 99.345 C 121.102 98.871,122.192 98.412,123.400 98.404 C 124.309 98.397,124.765 98.105,125.279 97.202 C 125.679 96.499,126.181 96.095,126.502 96.218 C 126.802 96.333,127.447 96.080,127.936 95.656 C 128.425 95.231,129.438 94.769,130.186 94.629 C 131.283 94.423,131.633 94.111,131.994 93.019 C 132.790 90.607,136.417 88.537,137.219 90.036 C 138.005 91.505,139.200 90.994,139.200 89.189 C 139.200 87.402,140.639 85.459,143.079 83.951 C 144.273 83.213,144.400 82.952,144.400 81.241 C 144.400 78.779,146.356 76.800,148.790 76.800 C 151.595 76.800,151.770 75.383,149.035 74.816 L 147.800 74.560 147.800 69.324 L 147.800 64.089 146.500 62.468 C 145.384 61.076,145.200 60.533,145.200 58.623 C 145.200 56.338,144.332 54.800,143.043 54.800 C 142.038 54.800,142.000 53.791,142.000 26.767 L 142.000 0.000 103.000 0.000 L 64.000 0.000 64.000 26.951 M146.000 143.400 C 146.000 143.950,146.069 144.400,146.153 144.400 C 146.238 144.400,146.393 143.950,146.498 143.400 C 146.603 142.850,146.534 142.400,146.345 142.400 C 146.155 142.400,146.000 142.850,146.000 143.400 M145.252 147.100 C 144.312 148.251,144.024 148.426,144.013 147.851 C 144.002 147.221,143.902 147.184,143.382 147.615 C 143.028 147.909,142.876 148.400,143.025 148.764 C 144.020 151.184,144.303 153.736,143.727 155.112 C 143.259 156.233,143.226 156.880,143.568 158.240 C 143.806 159.183,144.000 160.649,144.000 161.497 C 144.000 162.346,144.216 163.256,144.480 163.520 C 145.032 164.072,146.959 164.182,146.626 163.642 C 146.357 163.207,147.522 162.704,148.046 163.028 C 148.252 163.156,148.370 163.021,148.310 162.730 C 148.249 162.438,148.400 162.237,148.645 162.282 C 149.105 162.366,149.050 159.818,148.559 158.272 C 148.361 157.648,148.450 157.534,148.975 157.735 C 149.367 157.885,149.541 157.828,149.397 157.596 C 149.263 157.378,149.798 156.820,150.587 156.355 C 154.487 154.054,153.448 149.442,148.314 146.271 C 146.819 145.347,146.645 145.395,145.252 147.100 M68.660 160.549 C 68.959 160.842,68.999 161.315,68.773 161.900 C 68.278 163.184,64.661 163.234,63.982 161.967 C 62.961 160.059,66.931 158.856,68.660 160.549 M127.600 162.647 C 127.600 163.875,127.738 164.422,127.986 164.174 C 128.586 163.574,128.673 161.113,128.100 160.910 C 127.745 160.785,127.600 161.288,127.600 162.647 M139.996 167.795 C 140.580 168.498,140.277 169.519,139.382 169.862 C 138.459 170.217,137.859 169.417,138.157 168.229 C 138.445 167.081,139.246 166.892,139.996 167.795 M135.783 171.972 C 136.079 172.451,135.326 172.925,134.793 172.596 C 134.346 172.319,134.640 171.600,135.200 171.600 C 135.394 171.600,135.656 171.768,135.783 171.972 M66.281 200.478 C 67.006 201.182,67.600 202.094,67.600 202.507 C 67.600 202.920,67.870 203.527,68.200 203.857 C 68.530 204.187,68.800 204.714,68.800 205.029 C 68.800 205.343,68.530 205.600,68.200 205.600 C 67.827 205.600,67.600 205.222,67.600 204.600 C 67.600 202.864,65.164 203.196,63.200 205.200 C 61.427 207.009,61.322 207.041,60.069 206.164 C 59.291 205.618,59.178 205.231,59.280 203.464 L 59.400 201.400 61.577 200.703 C 62.775 200.319,63.936 199.824,64.157 199.603 C 64.733 199.027,64.820 199.062,66.281 200.478 M135.435 220.698 C 134.998 221.135,134.699 220.440,135.012 219.717 C 135.310 219.032,135.332 219.033,135.497 219.731 C 135.593 220.134,135.565 220.569,135.435 220.698 M152.000 240.773 C 152.000 242.672,150.460 244.993,149.702 244.236 C 149.537 244.070,149.716 243.704,150.101 243.423 C 150.623 243.042,150.800 242.343,150.800 240.668 C 150.800 238.839,150.911 238.468,151.400 238.655 C 151.816 238.815,152.000 239.464,152.000 240.773 M145.849 248.616 C 145.501 249.524,145.470 249.490,146.811 249.687 C 148.161 249.885,148.213 249.371,146.927 248.518 C 146.207 248.040,146.065 248.053,145.849 248.616 M141.357 252.169 C 141.027 253.027,141.924 254.400,142.814 254.400 C 143.368 254.400,143.600 254.128,143.600 253.480 C 143.600 251.901,141.852 250.879,141.357 252.169 M64.186 256.423 C 63.840 256.982,64.310 258.800,64.800 258.800 C 65.012 258.800,65.295 258.360,65.430 257.823 C 65.685 256.806,65.407 256.000,64.800 256.000 C 64.606 256.000,64.330 256.190,64.186 256.423 M145.600 257.201 C 145.600 258.188,146.293 258.587,146.994 258.005 C 147.722 257.401,147.392 256.585,146.390 256.509 C 145.863 256.469,145.600 256.700,145.600 257.201 " stroke="none" fill="#55b372" fill-rule="evenodd"></path></g></svg>